<?xml version="1.0" encoding="utf-8"?>
<!-- Generator: Adobe Illustrator 23.1.0, SVG Export Plug-In . SVG Version: 6.00 Build 0)  -->
<svg version="1.1" xmlns="http://www.w3.org/2000/svg" xmlns:xlink="http://www.w3.org/1999/xlink" x="0px" y="0px"
	 viewBox="0 0 141.73 141.73" style="enable-background:new 0 0 141.73 141.73;" xml:space="preserve">
<style type="text/css">
	.st0{fill:#E6A329;}
	.st1{fill:#F1BF22;}
	.st2{fill:#FFFFFF;}
	.st3{fill:#EBEBEB;}
</style>
<g id="Layer_1">
	<g id="code_x5F_html5">
	</g>
	<g>
		<polygon class="st0" points="111.14,36.4 70.87,36.4 70.87,36.4 30.59,36.4 38.14,118.28 70.87,127.56 70.87,127.56 70.87,127.56 
			70.87,127.56 70.87,127.56 103.58,118.28 		"/>
		<polygon class="st1" points="70.87,43.07 70.87,120.63 70.87,120.63 97.37,113.11 103.82,43.07 		"/>
		<polygon class="st2" points="91.95,53.11 51.19,53.11 48.35,83.77 48.41,83.58 83.04,83.58 81.91,96.55 70.87,99.74 59.65,96.5 
			58.98,88.65 48.8,88.65 50.25,104.34 70.87,110.19 91.48,104.34 94.32,73.56 57.57,73.56 58.04,63.29 83.54,63.29 83.92,69.17 
			94.19,69.17 		"/>
		<g>
			<path class="st3" d="M70.87,53.11H51.19l-2.83,30.66l0.06-0.19h22.45V73.56H58.99l0.47-10.26h11.41V53.11z M58.98,88.65H48.8
				l1.45,15.68l20.61,5.84V99.74L59.65,96.5L58.98,88.65z"/>
		</g>
		<g>
			<polygon points="63.03,24.32 55.86,24.32 55.86,29.46 63.03,29.46 66.86,29.46 68.16,29.46 68.16,14.17 63.03,14.17 			"/>
			<path d="M85.87,14.25H73.37c0,0,0,2.69,0,5.35c1.67,1.67,2.54,2.47,4.96,4.89c-1.41,0-4.96,0-4.96,0v4.88h12.49V24.5l-4.99-4.89
				h4.99V14.25z"/>
		</g>
	</g>
</g>
<g id="Layer_2">
</g>
</svg>
